<?xml version="1.0" encoding="UTF-8"?> <svg xmlns="http://www.w3.org/2000/svg" xmlns:xlink="http://www.w3.org/1999/xlink" version="1.1" id="Layer_1" x="0px" y="0px" width="792px" height="612px" viewBox="0 0 792 612" xml:space="preserve"> <path d="M568.431,282.001c6.878,5.448,23.803,1.292,28.782,10.466c2.251,4.147-1.551,10.782-0.872,16.571 c1.384,11.808,15.227,18.487,14.827,30.526c-0.513,15.494-14.607,20.027-27.91,23.55c-9.425,35.347-26.412,63.131-68.901,65.414 c-8.321,30.424,5.847,65.846,4.359,94.194c-0.252,4.805-1.623,12.199-4.359,15.699c-6.928,8.857-35.107,11.956-50.587,13.083 c-33.516,2.439-75.157-0.872-115.129-0.872c-40.187,0-80.021,2.938-109.896-5.232c-5.78-20.856-1.151-35.825,4.361-54.075 c4.188-13.868,14.188-37.78-4.361-42.737c-10.237-2.734-18.165,4.504-26.166-1.744c-9.424-7.359-2.16-27.425-4.361-42.736 c-1.146-7.973-6.904-10.279-8.722-20.062c-4.732-25.455,13.999-35.743,25.293-49.714c-5.624-17.896-19.513-31.295-16.571-54.948 c-39.21-12.761-76.184-21.121-101.174-47.098c-19.625-20.401-27.392-49.185-44.481-71.52c-7.039-9.199-20.459-16.439-32.271-27.038 c-9.702-8.705-23.26-24.514-16.571-40.121C19.758,79.52,42.417,76.42,65.18,78.78c47.312,4.904,94.726,17.801,140.422,27.91 c9.327,2.063,20.098,6.368,27.038,6.105c8.643-0.328,22.822-10.51,33.143-15.699c35.714-17.956,73.646-40.081,127.339-37.504 c39.58,1.899,77.129,16.232,102.917,31.399c12.589,7.403,22.948,22.144,40.121,24.421c10.77,1.428,23.042-1.939,33.143-2.617 c28.084-1.882,66.921,0.604,99.431-0.872c28.386-1.29,83.972-6.279,94.194,2.617c15.535,13.516-1.799,37.579-11.338,47.97 c-18.604,20.267-32.563,34.96-49.715,54.076c-7.589,8.457-14.631,18.106-25.293,26.166 C648.568,263.928,606.316,270.723,568.431,282.001z"></path> <path fill="#A65400" d="M385.272,391.896c-5.979,41.146-4.473,97.265-8.723,143.038c-6.208,3.388-16.696,2.492-26.166,2.616 c-15.509-40.291-9.488-111.076,6.979-145.654C364.837,390.563,377.825,390.386,385.272,391.896z M346.896,391.023 c-10.058-2.82-22.386,2.014-31.398-1.743c-10.058,19.649-10.608,60.613-42.737,49.715c-2.017,13.135-14.093,33.371-3.489,45.354 c22.733,4.123,28.257-21.164,42.737-25.293c-4.831,12.466-12.827,20.214-25.293,27.909c-15.103,9.323-40.656,15.082-33.143,42.737 c21.237,7.864,53.583,9.177,81.113,7.85c3.809-13.889-1.608-27.796-2.616-41.864C329.396,458.377,341.915,422.902,346.896,391.023z M467.257,456.438c-3.999-30.188,22.278-58.938,10.467-86.346c-9.188,17.387-22.736,47.198-40.12,61.053 c-7.493,5.974-28.094,21.132-32.271,4.36c40.771-15.629,62.251-50.552,77.625-91.579c-35.533,4.014-47.045,39.588-87.219,41.865 c-10.729,42.764-8.37,98.617-11.338,149.144c31.749,7.908,77.067,3.96,105.533-4.36c-0.374-38.582,0.881-78.795-6.104-110.769 C474.648,428.362,480.652,452.1,467.257,456.438z M271.888,398.002c4.041-9.332,3.521-23.227,3.489-36.632 c-8.948-8.205-22.236-12.068-34.015-17.443C220.605,363.626,254.837,391.357,271.888,398.002z M284.098,363.115 c-5.313,19.398-1.05,48.374-6.978,67.158c21.763-3.894,33.857-33.1,27.91-61.926C298.961,365.695,293.257,362.678,284.098,363.115z"></path> <path fill="#BD884E" d="M335.557,370.093c7.977-19.379-11.436-44.489-5.232-59.309c4.364-10.428,40.178-11.164,57.563-13.956 c46.147-7.411,119.828-0.805,149.145-21.804c5.688,1.205,8.705,9.331,7.85,14.827c-1.315,8.46-14.558,11.975-22.677,18.315 c-3.626,2.831-7.378,9.018-10.467,11.339c-9.727,7.312-25.063,10.744-38.376,16.571c-36.22,15.855-74.127,42.855-121.233,42.736 c-11.078-0.027-24.057-1.604-33.143-7.85C324.737,370.9,331.025,371.375,335.557,370.093z M526.565,381.432 c-2.944-12.174-7.535-30.879-6.104-46.227c0.451-4.842,4.058-10.248,0.872-13.955c-12.998,8.338-24.647,21.309-21.805,42.736 c-0.691,3.089-6.526,1.033-6.105,5.233c3.783,12.819,3.42,25.772,10.466,34.016c18.658,21.823,61.201-10.603,54.948-38.376 C543.878,359.979,539.64,378.83,526.565,381.432z M264.91,425.912c21.823-14.549-8.453-29.977-24.421-33.143 c-1.666-15.778-8.242-26.646-16.571-35.761C211.27,395.111,242.182,412.427,264.91,425.912z M264.91,298.573 c-14.957-1.947-20.996-15.984-33.143-20.933c-11.1,12.738,2.694,34.978,10.466,44.481c17.733,21.688,54.39,42.402,87.219,40.121 c-2.87-21.105-13.887-54.602,4.36-67.159c-19.602,0.318-39.016,0.152-55.819,1.744C273.495,297.255,269.221,299.134,264.91,298.573z "></path> <path fill="#FFFFFF" d="M461.152,196.527c1.217,10.203-15.508,9.119-18.316,3.489C443.598,193.691,456.391,193.457,461.152,196.527z M271.016,198.272c2.976,5.935,16.98,5.397,18.316-1.745C286.44,191.395,271.953,191.521,271.016,198.272z"></path> <path fill="#96D473" d="M251.827,445.973c-5.776-3.383-8.662-11.619-4.361-18.315c6.468,1.382,11.985,3.714,15.7,7.85 C262.379,441.988,257.31,444.188,251.827,445.973z M224.79,405.852c-4.804,8.277-6.529,31.222,3.489,33.145 c6.243,1.198,13.29-5.668,12.21-13.955C239.478,417.273,226.919,411.628,224.79,405.852z M572.792,318.634 c2.809-3.895,7.965-3.515,7.85-8.723c-0.379-17.178-41.9-1.082-40.992,10.467c2.777,3.327,8.195,4.015,8.722,9.595 c-2.255,6.065-10.597,4.035-16.571,2.616c-5.104,8.701-3.002,29.425,3.489,34.888c14.335-10.086,28.362-20.479,50.587-22.678 c1.344-5.053,2.872-9.919,2.616-16.57C585.074,323.213,575.279,324.577,572.792,318.634z M596.341,129.369 c-21.136,0.929-46.237,4.277-67.158-0.872c-11.014-2.711-22.234-10.928-32.271-16.572c-32.333-18.184-72.41-40.978-125.594-36.632 c-41.407,3.383-73.008,21.429-101.174,38.376c-10.026,6.033-20.602,14.51-31.398,15.699c-15.614,1.72-31.555-7.433-46.226-11.338 c-33.293-8.862-63.936-12.835-97.685-18.316c-23.479-3.813-52.447-13.446-66.286,0.872c8.528,22.807,33.879,32.032,47.098,52.331 c9.58,14.711,15.797,30.648,24.421,44.481c26.917,43.174,71.14,63.522,136.933,68.031c1.799-6.183-5.264-8.077-2.616-12.21 c16.117,12.091,20.684,33.691,46.226,34.015c18.363,0.233,33.476-10.8,52.332-10.466c-2.818,5.322-12.128,4.152-14.827,9.594 c42.62,2.203,86.912-1.464,127.339-4.361c0.68-4.458-6.181-1.377-6.104-5.233c45.96,2.032,86.153-2.44,101.174-32.271 c1.143-2.269,3.017-7.338,3.488-10.466c2.202-14.566-4.881-26.95-3.488-37.504c0.625-4.743,5.804-12.783,8.723-16.571 c24.736-32.107,91.22-31.725,141.294-31.399c-33.8,14.21-73.698,6.226-101.174,20.06c-12.999,6.545-28.124,20.186-34.017,34.888 c-2.854,7.122-1.247,15.731-3.487,25.293c-2.823,12.046-11.473,19.268-13.083,34.015c51.992,1.675,101.936-9.713,131.699-34.887 c7.906-6.687,13.732-16.515,20.934-24.421c7.461-8.194,15.119-15.991,22.677-23.549c15.569-15.57,33.527-31.118,39.248-52.332 C699.355,125.781,646.003,127.186,596.341,129.369z M227.406,237.52c-10.41-13.264-8.311-38.389-14.827-52.331 c-21.323-45.621-91.848-42.016-129.956-71.519c14.254,1.219,39.082,9.776,62.797,17.443c22.255,7.196,45.729,12.183,58.436,20.061 c10.592,6.566,26.042,22.416,27.91,34.887C234.343,203.264,223.516,218.281,227.406,237.52z M431.498,130.241 c1.408-0.246,1.501,0.825,2.616,0.872c-0.085,12.75-6.328,26.784-16.571,32.271C417.58,151.166,427.188,141.082,431.498,130.241z M386.144,161.64c-3.728-9.646-4.561-22.187-6.104-34.016C388.587,132.372,391.456,151.022,386.144,161.64z M407.948,227.926 c-0.829,7.274-10.627,12.002-20.061,9.594c1.511-6.921,11.918-4.943,13.956-11.338c-2.502-11.84-32.979-12.391-32.271,0 c0.41,7.173,10.493,4.676,12.211,12.211c-5.55,1.858-12.725-1.665-17.444-3.489C352.984,206.621,410.594,204.745,407.948,227.926z M361.723,165.129c-15.977-9.026-25.384-24.621-39.248-35.76C342.3,131.059,356.735,145.694,361.723,165.129z M238.745,197.399 c4.968-33.877,87.841-52.02,101.173-10.466c-14.73-2.712-21.768-16.902-38.376-19.188 C270.772,163.51,258.323,187.077,238.745,197.399z M305.031,250.603c-18.441-0.188-41.565-10.105-49.715-19.188 c-4.578-5.102-11.11-15.805-8.722-27.91c3.265-16.548,25.168-23.587,47.098-24.421c16.708-0.636,37.179,8.476,46.226,20.061 C361.309,226.535,337.806,250.938,305.031,250.603z M355.618,268.919c12.685-10.294,47.557-9.415,57.563,2.616 C395.223,269.434,375.868,268.729,355.618,268.919z M518.716,202.633c-1.159,7.179,1.565,11.816,0,17.443 c-4.655,16.743-80.155,43.64-97.685,16.572c-10.314-15.927,4.303-37.858,13.083-45.354c9.712-8.292,27.774-17.837,48.843-14.827 c12.041,1.72,15.152,8.495,27.909,12.21c-8.025-25.908-53.508-22.743-73.265-9.594c19.314-33.426,82.9-12.307,86.348,21.805 C524.775,204.04,520.515,202.104,518.716,202.633z"></path> </svg> 